<svg width="40" height="44" viewBox="0 0 40 44" fill="none" xmlns="http://www.w3.org/2000/svg">
<g clip-path="url(#clip0_1081_143)">
<path d="M6.38709 40.4517H2.83871C2.65049 40.4517 2.46998 40.5264 2.33689 40.6595C2.2038 40.7926 2.12903 40.9731 2.12903 41.1613C2.12903 41.3496 2.2038 41.5301 2.33689 41.6632C2.46998 41.7962 2.65049 41.871 2.83871 41.871H6.38709C6.57531 41.871 6.75582 41.7962 6.88891 41.6632C7.022 41.5301 7.09677 41.3496 7.09677 41.1613C7.09677 40.9731 7.022 40.7926 6.88891 40.6595C6.75582 40.5264 6.57531 40.4517 6.38709 40.4517Z" fill="#295C7A"/>
<path d="M9.22581 40.4517H8.51614C8.32792 40.4517 8.14741 40.5264 8.01432 40.6595C7.88123 40.7926 7.80646 40.9731 7.80646 41.1613C7.80646 41.3496 7.88123 41.5301 8.01432 41.6632C8.14741 41.7962 8.32792 41.871 8.51614 41.871H9.22581C9.41403 41.871 9.59454 41.7962 9.72763 41.6632C9.86072 41.5301 9.93549 41.3496 9.93549 41.1613C9.93549 40.9731 9.86072 40.7926 9.72763 40.6595C9.59454 40.5264 9.41403 40.4517 9.22581 40.4517Z" fill="#295C7A"/>
<path d="M4.25808 12.7742H26.9678C27.156 12.7742 27.3365 12.6994 27.4696 12.5663C27.6027 12.4332 27.6774 12.2527 27.6774 12.0645V9.22579C27.6774 9.03757 27.6027 8.85706 27.4696 8.72397C27.3365 8.59088 27.156 8.51611 26.9678 8.51611H4.25808C4.06986 8.51611 3.88935 8.59088 3.75626 8.72397C3.62317 8.85706 3.5484 9.03757 3.5484 9.22579V12.0645C3.5484 12.2527 3.62317 12.4332 3.75626 12.5663C3.88935 12.6994 4.06986 12.7742 4.25808 12.7742ZM4.96776 9.93547H26.2581V11.3548H4.96776V9.93547Z" fill="#295C7A"/>
<path d="M4.25808 18.4514H26.9678C27.156 18.4514 27.3365 18.3767 27.4696 18.2436C27.6027 18.1105 27.6774 17.93 27.6774 17.7417V14.903C27.6774 14.7148 27.6027 14.5343 27.4696 14.4012C27.3365 14.2681 27.156 14.1934 26.9678 14.1934H4.25808C4.06986 14.1934 3.88935 14.2681 3.75626 14.4012C3.62317 14.5343 3.5484 14.7148 3.5484 14.903V17.7417C3.5484 17.93 3.62317 18.1105 3.75626 18.2436C3.88935 18.3767 4.06986 18.4514 4.25808 18.4514ZM4.96776 15.6127H26.2581V17.0321H4.96776V15.6127Z" fill="#295C7A"/>
<path d="M4.25808 24.1292H26.9678C27.156 24.1292 27.3365 24.0544 27.4696 23.9213C27.6027 23.7882 27.6774 23.6077 27.6774 23.4195V20.5808C27.6774 20.3926 27.6027 20.212 27.4696 20.079C27.3365 19.9459 27.156 19.8711 26.9678 19.8711H4.25808C4.06986 19.8711 3.88935 19.9459 3.75626 20.079C3.62317 20.212 3.5484 20.3926 3.5484 20.5808V23.4195C3.5484 23.6077 3.62317 23.7882 3.75626 23.9213C3.88935 24.0544 4.06986 24.1292 4.25808 24.1292ZM4.96776 21.2904H26.2581V22.7098H4.96776V21.2904Z" fill="#295C7A"/>
<path d="M17.742 25.5483H4.25808C4.06986 25.5483 3.88935 25.6231 3.75626 25.7562C3.62317 25.8893 3.5484 26.0698 3.5484 26.258C3.5484 26.4462 3.62317 26.6267 3.75626 26.7598C3.88935 26.8929 4.06986 26.9677 4.25808 26.9677H17.742C17.9302 26.9677 18.1107 26.8929 18.2438 26.7598C18.3769 26.6267 18.4516 26.4462 18.4516 26.258C18.4516 26.0698 18.3769 25.8893 18.2438 25.7562C18.1107 25.6231 17.9302 25.5483 17.742 25.5483Z" fill="#295C7A"/>
<path d="M13.4839 27.6772H4.25808C4.06986 27.6772 3.88935 27.752 3.75626 27.8851C3.62317 28.0182 3.5484 28.1987 3.5484 28.3869C3.5484 28.5751 3.62317 28.7557 3.75626 28.8887C3.88935 29.0218 4.06986 29.0966 4.25808 29.0966H13.4839C13.6721 29.0966 13.8526 29.0218 13.9857 28.8887C14.1188 28.7557 14.1936 28.5751 14.1936 28.3869C14.1936 28.1987 14.1188 28.0182 13.9857 27.8851C13.8526 27.752 13.6721 27.6772 13.4839 27.6772Z" fill="#295C7A"/>
<path d="M5.67743 31.226C5.86565 31.226 6.04616 31.1512 6.17925 31.0181C6.31234 30.885 6.38711 30.7045 6.38711 30.5163C6.38711 30.3281 6.31234 30.1476 6.17925 30.0145C6.04616 29.8814 5.86565 29.8066 5.67743 29.8066H4.25808C4.06986 29.8066 3.88935 29.8814 3.75626 30.0145C3.62317 30.1476 3.5484 30.3281 3.5484 30.5163C3.5484 30.7045 3.62317 30.885 3.75626 31.0181C3.88935 31.1512 4.06986 31.226 4.25808 31.226H5.67743Z" fill="#295C7A"/>
<path d="M8.51613 31.226C8.70434 31.226 8.88485 31.1512 9.01794 31.0181C9.15103 30.885 9.2258 30.7045 9.2258 30.5163C9.2258 30.3281 9.15103 30.1476 9.01794 30.0145C8.88485 29.8814 8.70434 29.8066 8.51613 29.8066H7.80645C7.61823 29.8066 7.43772 29.8814 7.30463 30.0145C7.17154 30.1476 7.09677 30.3281 7.09677 30.5163C7.09677 30.7045 7.17154 30.885 7.30463 31.0181C7.43772 31.1512 7.61823 31.226 7.80645 31.226H8.51613Z" fill="#295C7A"/>
<path d="M39.0323 33.3548C39.0296 31.2199 38.2262 29.1635 36.7808 27.5922C35.3354 26.0209 33.3531 25.049 31.2258 24.8685V6.3871C31.2258 6.2939 31.2075 6.20161 31.1718 6.11551C31.1361 6.0294 31.0839 5.95117 31.018 5.88527L25.3405 0.207847C25.2746 0.141948 25.1964 0.089675 25.1103 0.0540125C25.0242 0.0183501 24.9319 -3.3954e-06 24.8387 4.71158e-10H0.709677C0.521459 4.71158e-10 0.34095 0.0747693 0.20786 0.20786C0.0747695 0.34095 0 0.521459 0 0.709677V43.2903C0 43.4785 0.0747695 43.659 0.20786 43.7921C0.34095 43.9252 0.521459 44 0.709677 44H30.5161C30.7043 44 30.8849 43.9252 31.0179 43.7921C31.151 43.659 31.2258 43.4785 31.2258 43.2903V41.8412C33.3531 41.6607 35.3354 40.6887 36.7808 39.1174C38.2262 37.5461 39.0296 35.4898 39.0323 33.3548V33.3548ZM25.5484 2.42293L28.8029 5.67742H25.5484V2.42293ZM1.41935 42.5806V1.41935H24.129V6.3871C24.129 6.57531 24.2038 6.75582 24.3369 6.88891C24.47 7.022 24.6505 7.09677 24.8387 7.09677H29.8065V24.8685C27.6785 25.047 25.6953 26.0184 24.2499 27.5902C22.8044 29.162 22.0022 31.2195 22.0022 33.3548C22.0022 35.4902 22.8044 37.5477 24.2499 39.1195C25.6953 40.6913 27.6785 41.6627 29.8065 41.8412V42.5806H1.41935ZM30.5161 40.4516C29.1125 40.4516 27.7404 40.0354 26.5734 39.2556C25.4063 38.4758 24.4967 37.3674 23.9596 36.0707C23.4224 34.7739 23.2819 33.347 23.5557 31.9703C23.8295 30.5937 24.5055 29.3292 25.498 28.3367C26.4905 27.3442 27.755 26.6683 29.1316 26.3944C30.5083 26.1206 31.9352 26.2611 33.2319 26.7983C34.5287 27.3354 35.6371 28.245 36.4169 29.4121C37.1967 30.5791 37.6129 31.9512 37.6129 33.3548C37.6108 35.2364 36.8624 37.0402 35.5319 38.3707C34.2015 39.7011 32.3977 40.4495 30.5161 40.4516V40.4516Z" fill="#295C7A"/>
<path d="M35.9857 30.724C35.9198 30.6581 35.8416 30.6058 35.7555 30.5701C35.6694 30.5345 35.5771 30.5161 35.4839 30.5161C35.3907 30.5161 35.2984 30.5345 35.2123 30.5701C35.1262 30.6058 35.0479 30.6581 34.982 30.724L30.4061 35.2999L27.3329 33.456C27.253 33.408 27.1644 33.3763 27.0722 33.3626C26.98 33.3489 26.886 33.3534 26.7956 33.376C26.7052 33.3986 26.6201 33.4388 26.5452 33.4943C26.4704 33.5498 26.4071 33.6195 26.3592 33.6994C26.3112 33.7793 26.2795 33.8679 26.2658 33.9601C26.2521 34.0523 26.2566 34.1462 26.2792 34.2367C26.3018 34.3271 26.342 34.4122 26.3975 34.487C26.453 34.5619 26.5227 34.6251 26.6026 34.6731L30.151 36.8021C30.2867 36.8836 30.4457 36.9174 30.6028 36.8981C30.7599 36.8788 30.906 36.8075 31.018 36.6957L35.9857 31.7279C36.0516 31.662 36.104 31.5838 36.1396 31.4976C36.1753 31.4115 36.1937 31.3192 36.1937 31.226C36.1937 31.1327 36.1753 31.0404 36.1396 30.9543C36.104 30.8681 36.0516 30.7899 35.9857 30.724Z" fill="#295C7A"/>
</g>
<defs>
<clipPath id="clip0_1081_143">
<rect width="39.0323" height="44" fill="white"/>
</clipPath>
</defs>
</svg>
