<svg width="48" height="41" viewBox="0 0 48 41" fill="none" xmlns="http://www.w3.org/2000/svg">
<path d="M26.0337 36.5469H21.9664C21.7851 36.5469 21.6113 36.4747 21.4832 36.3462C21.355 36.2177 21.283 36.0434 21.283 35.8617V2.76686C21.283 2.04431 21.5693 1.35135 22.0788 0.840434C22.5884 0.329513 23.2794 0.0424805 24 0.0424805C24.7206 0.0424805 25.4117 0.329513 25.9212 0.840434C26.4308 1.35135 26.717 2.04431 26.717 2.76686V35.8624C26.7169 36.044 26.6448 36.2181 26.5166 36.3464C26.3885 36.4748 26.2148 36.5469 26.0337 36.5469ZM22.6497 35.1765H25.3503V2.76686C25.3503 2.40777 25.2081 2.06338 24.9548 1.80946C24.7016 1.55554 24.3581 1.41289 24 1.41289C23.6419 1.41289 23.2984 1.55554 23.0452 1.80946C22.792 2.06338 22.6497 2.40777 22.6497 2.76686V35.1765Z" fill="#295C7A"/>
<path d="M7.53126 9.22829H5.18532C4.62873 9.21828 4.0983 8.98954 3.70822 8.59131C3.31813 8.19308 3.09956 7.6572 3.09956 7.09901C3.09956 6.54081 3.31813 6.00493 3.70822 5.6067C4.0983 5.20847 4.62873 4.97974 5.18532 4.96973H7.19847C7.3797 4.96973 7.55352 5.04192 7.68167 5.17042C7.80982 5.29892 7.88182 5.47321 7.88182 5.65493C7.88182 5.83666 7.80982 6.01095 7.68167 6.13945C7.55352 6.26795 7.3797 6.34014 7.19847 6.34014H5.18532C4.98854 6.34607 4.8018 6.42862 4.6647 6.57029C4.52759 6.71196 4.45091 6.9016 4.45091 7.09901C4.45091 7.29641 4.52759 7.48606 4.6647 7.62772C4.8018 7.76939 4.98854 7.85194 5.18532 7.85787H7.53126C7.7125 7.85787 7.88631 7.93007 8.01446 8.05857C8.14262 8.18707 8.21461 8.36135 8.21461 8.54308C8.21461 8.72481 8.14262 8.89909 8.01446 9.0276C7.88631 9.1561 7.7125 9.22829 7.53126 9.22829Z" fill="#295C7A"/>
<path d="M21.9663 9.22829H11.6648C11.4836 9.22829 11.3098 9.1561 11.1816 9.0276C11.0535 8.89909 10.9815 8.72481 10.9815 8.54308C10.9815 8.36135 11.0535 8.18707 11.1816 8.05857C11.3098 7.93007 11.4836 7.85787 11.6648 7.85787H21.283V6.34014H11.9969C11.8157 6.34014 11.6419 6.26795 11.5137 6.13945C11.3856 6.01095 11.3136 5.83666 11.3136 5.65493C11.3136 5.47321 11.3856 5.29892 11.5137 5.17042C11.6419 5.04192 11.8157 4.96973 11.9969 4.96973H21.9663C22.1476 4.96973 22.3214 5.04192 22.4495 5.17042C22.5777 5.29892 22.6497 5.47321 22.6497 5.65493V8.54308C22.6497 8.72481 22.5777 8.89909 22.4495 9.0276C22.3214 9.1561 22.1476 9.22829 21.9663 9.22829Z" fill="#295C7A"/>
<path d="M36.1862 9.22829H26.0337C25.8525 9.22829 25.6786 9.1561 25.5505 9.0276C25.4223 8.89909 25.3503 8.72481 25.3503 8.54308V5.65493C25.3503 5.47321 25.4223 5.29892 25.5505 5.17042C25.6786 5.04192 25.8525 4.96973 26.0337 4.96973H35.8541C36.0354 4.96973 36.2092 5.04192 36.3373 5.17042C36.4655 5.29892 36.5375 5.47321 36.5375 5.65493C36.5375 5.83666 36.4655 6.01095 36.3373 6.13945C36.2092 6.26795 36.0354 6.34014 35.8541 6.34014H26.717V7.85787H36.1862C36.3675 7.85787 36.5413 7.93007 36.6694 8.05857C36.7976 8.18707 36.8696 8.36135 36.8696 8.54308C36.8696 8.72481 36.7976 8.89909 36.6694 9.0276C36.5413 9.1561 36.3675 9.22829 36.1862 9.22829Z" fill="#295C7A"/>
<path d="M42.8079 9.22829H40.4688C40.2875 9.22829 40.1137 9.1561 39.9856 9.0276C39.8574 8.89909 39.7854 8.72481 39.7854 8.54308C39.7854 8.36135 39.8574 8.18707 39.9856 8.05857C40.1137 7.93007 40.2875 7.85787 40.4688 7.85787H42.8079C43.0046 7.85194 43.1914 7.76939 43.3285 7.62772C43.4656 7.48606 43.5423 7.29641 43.5423 7.09901C43.5423 6.9016 43.4656 6.71196 43.3285 6.57029C43.1914 6.42862 43.0046 6.34607 42.8079 6.34014H40.8056C40.6244 6.34014 40.4506 6.26795 40.3224 6.13945C40.1943 6.01095 40.1223 5.83666 40.1223 5.65493C40.1223 5.47321 40.1943 5.29892 40.3224 5.17042C40.4506 5.04192 40.6244 4.96973 40.8056 4.96973H42.8079C43.3645 4.97974 43.8949 5.20847 44.285 5.6067C44.6751 6.00493 44.8936 6.54081 44.8936 7.09901C44.8936 7.6572 44.6751 8.19308 44.285 8.59131C43.8949 8.98954 43.3645 9.21828 42.8079 9.22829Z" fill="#295C7A"/>
<path d="M32.6546 40.9572H15.3454C15.2417 40.9571 15.1393 40.9334 15.0461 40.8878C14.9529 40.8422 14.8712 40.7759 14.8073 40.6939C14.7435 40.612 14.699 40.5165 14.6774 40.4148C14.6558 40.3131 14.6575 40.2078 14.6825 40.1068C14.9643 38.7517 15.6899 37.53 16.7439 36.636C17.7979 35.7421 19.1198 35.2272 20.4992 35.1733H27.5008C28.8803 35.2272 30.2021 35.7421 31.2561 36.636C32.3101 37.53 33.0357 38.7517 33.3175 40.1068C33.3425 40.2078 33.3442 40.3131 33.3226 40.4148C33.301 40.5165 33.2566 40.612 33.1927 40.6939C33.1288 40.7759 33.0472 40.8422 32.9539 40.8878C32.8607 40.9334 32.7584 40.9571 32.6546 40.9572ZM16.2905 39.5868H31.7096C31.3843 38.721 30.8114 37.9707 30.0627 37.43C29.314 36.8893 28.4228 36.5822 27.5008 36.5472H20.4992C19.5772 36.5822 18.686 36.8893 17.9373 37.43C17.1886 37.9707 16.6157 38.721 16.2905 39.5868Z" fill="#295C7A"/>
<path d="M34.5051 40.9568H13.4949C13.3136 40.9568 13.1398 40.8846 13.0117 40.7561C12.8835 40.6276 12.8115 40.4534 12.8115 40.2716C12.8115 40.0899 12.8835 39.9156 13.0117 39.7871C13.1398 39.6586 13.3136 39.5864 13.4949 39.5864H34.5051C34.6864 39.5864 34.8602 39.6586 34.9883 39.7871C35.1165 39.9156 35.1885 40.0899 35.1885 40.2716C35.1885 40.4534 35.1165 40.6276 34.9883 40.7561C34.8602 40.8846 34.6864 40.9568 34.5051 40.9568Z" fill="#295C7A"/>
<path d="M47.2339 26.4093H29.5754C29.461 26.4094 29.3485 26.3807 29.248 26.3258C29.1475 26.2709 29.0624 26.1916 29.0005 26.0952C28.9385 25.9988 28.9017 25.8883 28.8934 25.7739C28.8851 25.6595 28.9055 25.5448 28.9529 25.4404L36.4561 8.87624C36.493 8.79406 36.5458 8.72001 36.6113 8.65831C36.6769 8.59661 36.7539 8.54849 36.838 8.51669C36.9221 8.4849 37.0117 8.47006 37.1015 8.47303C37.1914 8.47599 37.2798 8.49671 37.3616 8.53398C37.4435 8.57125 37.5172 8.62435 37.5785 8.69024C37.6399 8.75613 37.6877 8.8335 37.7191 8.91794C37.7506 9.00237 37.7652 9.0922 37.762 9.18229C37.7588 9.27237 37.7379 9.36093 37.7005 9.4429L30.636 25.0389H46.1706L39.1123 9.4429C39.0752 9.36093 39.0546 9.27244 39.0517 9.18248C39.0487 9.09253 39.0634 9.00287 39.095 8.91863C39.1266 8.83438 39.1745 8.75721 39.2358 8.6915C39.2972 8.6258 39.3708 8.57285 39.4526 8.53569C39.5343 8.49853 39.6226 8.47788 39.7123 8.47491C39.802 8.47195 39.8914 8.48673 39.9754 8.51842C40.0594 8.5501 40.1364 8.59807 40.2019 8.65958C40.2675 8.7211 40.3203 8.79495 40.3573 8.87692L47.853 25.4411C47.9001 25.5452 47.9204 25.6595 47.9122 25.7735C47.904 25.8876 47.8675 25.9977 47.8059 26.0939C47.7444 26.1902 47.6598 26.2695 47.5599 26.3245C47.46 26.3796 47.3479 26.4088 47.2339 26.4093Z" fill="#295C7A"/>
<path d="M38.4747 35.1491H38.3325C32.861 35.1491 28.8893 31.1859 28.8893 25.7248C28.8893 25.543 28.9613 25.3687 29.0895 25.2402C29.2176 25.1117 29.3915 25.0396 29.5727 25.0396H47.2339C47.4151 25.0396 47.5889 25.1117 47.7171 25.2402C47.8452 25.3687 47.9172 25.543 47.9172 25.7248C47.9172 31.1893 43.9456 35.1491 38.4747 35.1491ZM30.28 26.41C30.5847 30.783 33.8095 33.7787 38.3325 33.7787H38.4747C42.9971 33.7787 46.2225 30.783 46.5266 26.41H30.28Z" fill="#295C7A"/>
<path d="M38.4036 10.2057C37.7391 10.2058 37.0896 10.0084 36.537 9.6383C35.9845 9.26822 35.5538 8.74214 35.2994 8.12661C35.0451 7.51107 34.9785 6.83372 35.1081 6.18024C35.2377 5.52675 35.5577 4.92649 36.0275 4.45536C36.4974 3.98422 37.096 3.66339 37.7477 3.53344C38.3994 3.40349 39.0749 3.47026 39.6888 3.72529C40.3027 3.98033 40.8273 4.41218 41.1964 4.96623C41.5655 5.52028 41.7624 6.17163 41.7623 6.83791C41.7612 7.73077 41.407 8.58675 40.7773 9.2181C40.1477 9.84945 39.2941 10.2046 38.4036 10.2057ZM38.4036 4.83985C38.0095 4.83972 37.6242 4.95678 37.2964 5.17625C36.9686 5.39572 36.7131 5.70773 36.5622 6.07281C36.4112 6.4379 36.3717 6.83967 36.4485 7.2273C36.5253 7.61493 36.715 7.97101 36.9937 8.25052C37.2723 8.53002 37.6274 8.72038 38.0139 8.79753C38.4005 8.87469 38.8012 8.83516 39.1653 8.68395C39.5295 8.53274 39.8407 8.27664 40.0597 7.94805C40.2787 7.61945 40.3956 7.23312 40.3956 6.83791C40.395 6.30828 40.185 5.80048 39.8116 5.42591C39.4382 5.05134 38.9318 4.84058 38.4036 4.83985Z" fill="#295C7A"/>
<path d="M18.4239 26.4093H0.766131C0.651794 26.4093 0.539294 26.3805 0.438934 26.3255C0.338573 26.2706 0.253562 26.1913 0.191685 26.0949C0.129809 25.9985 0.0930466 25.8881 0.0847648 25.7737C0.0764831 25.6594 0.0969469 25.5448 0.144282 25.4404L7.64883 8.87624C7.72377 8.71069 7.86123 8.58177 8.03097 8.51784C8.20071 8.45391 8.38882 8.46021 8.55393 8.53536C8.71903 8.6105 8.84761 8.74833 8.91136 8.91853C8.97512 9.08873 8.96884 9.27736 8.8939 9.44291L1.82942 25.0389H17.364L10.3057 9.44291C10.2664 9.36068 10.244 9.27142 10.2395 9.18036C10.2351 9.0893 10.2489 8.99828 10.28 8.91262C10.3111 8.82696 10.359 8.74838 10.4208 8.6815C10.4825 8.61462 10.557 8.56077 10.6398 8.52311C10.7226 8.48545 10.8121 8.46474 10.903 8.46218C10.9938 8.45963 11.0843 8.47529 11.1691 8.50824C11.2539 8.54119 11.3312 8.59077 11.3966 8.65408C11.4621 8.71739 11.5142 8.79315 11.5501 8.87693L19.0464 25.4411C19.0936 25.5455 19.114 25.6601 19.1056 25.7744C19.0972 25.8887 19.0603 25.9991 18.9984 26.0954C18.9365 26.1917 18.8514 26.2709 18.7511 26.3258C18.6507 26.3806 18.5382 26.4093 18.4239 26.4093Z" fill="#295C7A"/>
<path d="M9.66742 35.1491H9.52529C4.05439 35.1491 0.082756 31.1893 0.082756 25.7248C0.082756 25.543 0.154752 25.3687 0.282905 25.2402C0.411058 25.1117 0.58487 25.0396 0.766106 25.0396H18.4273C18.6085 25.0396 18.7823 25.1117 18.9105 25.2402C19.0386 25.3687 19.1106 25.543 19.1106 25.7248C19.1106 31.1893 15.139 35.1491 9.66742 35.1491ZM1.47337 26.41C1.77746 30.783 5.00288 33.7787 9.52529 33.7787H9.66742C14.1905 33.7787 17.4152 30.783 17.72 26.41H1.47337Z" fill="#295C7A"/>
<path d="M9.59636 10.2057C8.93192 10.2057 8.2824 10.0081 7.72994 9.63797C7.17748 9.2678 6.74691 8.74168 6.49267 8.12613C6.23843 7.51058 6.17194 6.83326 6.30162 6.17982C6.43129 5.52638 6.75131 4.92618 7.22119 4.45511C7.69107 3.98405 8.28971 3.66329 8.94141 3.53339C9.5931 3.4035 10.2686 3.4703 10.8824 3.72536C11.4962 3.98042 12.0208 4.41227 12.3899 4.9663C12.7589 5.52033 12.9558 6.17166 12.9557 6.83791C12.9546 7.73089 12.6003 8.58697 11.9705 9.21834C11.3408 9.84971 10.4869 10.2048 9.59636 10.2057ZM9.59636 4.83985C9.20226 4.83985 8.817 4.95703 8.48931 5.17658C8.16162 5.39613 7.90622 5.70819 7.7554 6.07329C7.60458 6.43839 7.56512 6.84013 7.642 7.22772C7.71889 7.6153 7.90867 7.97132 8.18735 8.25076C8.46603 8.53019 8.82108 8.72049 9.20762 8.79758C9.59415 8.87468 9.99481 8.83511 10.3589 8.68388C10.723 8.53266 11.0342 8.27656 11.2532 7.94798C11.4721 7.6194 11.589 7.23309 11.589 6.83791C11.5885 6.30816 11.3784 5.80026 11.0048 5.42567C10.6312 5.05108 10.1247 4.8404 9.59636 4.83985Z" fill="#295C7A"/>
</svg>
