<svg width="30" height="44" viewBox="0 0 30 44" fill="none" xmlns="http://www.w3.org/2000/svg">
<path d="M29.6163 5.60906L29.6013 5.57145L29.5919 5.55265V5.54325L29.5787 5.52632L24.1257 0.0733333L24.0938 0.0451282L24.0731 0.0338462H24.0599L24.0374 0.0244444H24.0148C23.9771 0.0115641 23.9379 0.00338462 23.8982 0H1.84369V0.00188034C0.841753 0.00498291 0.0303853 0.816444 0.0272827 1.81829V35.2244C0.0303853 36.2263 0.841847 37.0378 1.84369 37.0409H5.7454C5.86913 37.2508 6.03037 37.4363 6.22113 37.588V43.4265C6.20214 43.5512 6.23326 43.6782 6.30762 43.78C6.30791 43.7804 6.30819 43.7807 6.30847 43.781C6.4825 43.9929 6.79529 44.0236 7.00711 43.8496L9.67156 41.6627L12.2909 43.8364C12.3804 43.9149 12.4953 43.9583 12.6143 43.9586C12.6175 43.9586 12.6207 43.9585 12.6238 43.9585C12.8906 43.9523 13.1019 43.7309 13.0957 43.4641V37.6858C13.3326 37.5138 13.5338 37.2972 13.688 37.0484H27.8263C28.3084 37.0482 28.7705 36.856 29.1105 36.5144C29.4518 36.1748 29.6439 35.7134 29.6445 35.232V5.75197C29.6423 5.70317 29.6328 5.65503 29.6163 5.60906ZM24.357 1.70923L28.1177 5.46991L25.1769 5.46803C24.9595 5.46794 24.7511 5.38135 24.5977 5.22735C24.4437 5.07391 24.3571 4.86557 24.357 4.6482V1.70923ZM12.1254 42.4167L9.97993 40.6398C9.79688 40.4896 9.53307 40.4896 9.35002 40.6398L7.18386 42.4149V38.0224C7.18386 38.0224 7.8119 38.1032 8.16352 37.9152C8.54608 38.3738 9.11197 38.6395 9.70916 38.641C10.3024 38.6247 10.8619 38.3616 11.2529 37.9152C11.4342 37.9822 11.6242 38.0227 11.817 38.0356C11.9196 38.0444 12.0228 38.0444 12.1254 38.0356V42.4167ZM14.2671 33.8104C14.5252 34.1469 14.5605 34.604 14.3574 34.9762C14.1594 35.3186 13.7809 35.515 13.3871 35.4802C13.1136 35.4574 12.8732 35.6599 12.8493 35.9333C12.8726 36.1545 12.8341 36.3777 12.7384 36.5783C12.5521 36.9365 12.1709 37.15 11.7681 37.1217C11.6537 37.1133 11.5414 37.0866 11.4353 37.0427H11.424H11.4109H11.3958H11.3601H11.3488H11.1251C11.0345 36.9857 10.9257 36.9648 10.8204 36.9844H10.7377L10.7076 37.0014L10.6907 37.0183L10.6757 37.0371L10.6606 37.0578H10.6493H10.6268C10.5258 37.2735 10.3523 37.447 10.1366 37.548C9.62774 37.7861 9.02218 37.5666 8.78403 37.0578C8.66764 36.8098 8.3728 36.7022 8.12403 36.8171C7.9172 36.9876 7.6516 37.0702 7.3845 37.0469C6.82171 36.9978 6.40521 36.5018 6.45429 35.939C6.45683 35.9088 6.45664 35.8784 6.45363 35.8483C6.42674 35.5745 6.18286 35.3743 5.90899 35.4012C5.67348 35.4202 5.43862 35.3565 5.24485 35.2212C4.78427 34.8996 4.67163 34.2654 4.99327 33.8048C5.00897 33.7827 5.02279 33.7593 5.03463 33.7349C5.1545 33.4884 5.05184 33.1913 4.80523 33.0715C4.5904 32.9705 4.4175 32.7976 4.31653 32.5828C4.07707 32.0734 4.29585 31.4663 4.80523 31.2268C4.834 31.2132 4.86145 31.1969 4.88712 31.178C5.10806 31.0158 5.15563 30.705 4.99327 30.4841C4.8607 30.29 4.7995 30.0559 4.81999 29.8217C4.86897 29.262 5.36247 28.848 5.92215 28.8971C5.95233 28.8996 5.9827 28.8994 6.01279 28.8964C6.28666 28.8695 6.48682 28.6257 6.45993 28.3518C6.42787 27.9576 6.62644 27.5803 6.9695 27.3834C7.31229 27.1865 7.73809 27.2054 8.06198 27.4323C8.08408 27.448 8.10749 27.4618 8.13184 27.4737C8.37835 27.5935 8.67544 27.4909 8.79532 27.2443C8.96032 26.8845 9.32087 26.6549 9.71668 26.6576V26.6538C10.0881 26.7087 10.3977 26.9663 10.5196 27.3214C10.636 27.5694 10.9308 27.6769 11.1796 27.562C11.5153 27.3024 11.973 27.2663 12.3454 27.4699C12.6877 27.6679 12.8842 28.0463 12.8493 28.4402C12.8266 28.7137 13.0291 28.9541 13.3025 28.9779C13.5236 28.9547 13.7468 28.9931 13.9475 29.0889C13.9866 29.1093 14.0244 29.1322 14.0606 29.1576C14.5208 29.4799 14.6327 30.1141 14.3104 30.5744C14.154 30.7988 14.2087 31.1073 14.4326 31.2644C14.6362 31.3548 14.8106 31.5 14.9365 31.6838C14.9581 31.7183 14.9777 31.7541 14.9951 31.7909C15.236 32.3019 15.0169 32.9114 14.5059 33.1523C14.2588 33.2686 14.1521 33.5627 14.2671 33.8104ZM28.821 35.2376C28.8209 35.455 28.7343 35.6633 28.5803 35.8167C28.427 35.9712 28.2187 36.0586 28.0011 36.0593H14.724V36.0537C15.4907 35.536 15.8049 34.562 15.4856 33.6938C15.5829 33.6134 15.6724 33.5239 15.7529 33.4266C16.4584 32.5734 16.3387 31.3099 15.4856 30.6044C15.5287 30.4874 15.561 30.3666 15.5818 30.2435C15.7666 29.1489 15.029 28.1117 13.9343 27.9268C13.9135 27.8067 13.8818 27.6886 13.8397 27.5742C13.4558 26.5325 12.3003 25.9992 11.2586 26.3831C11.1788 26.2869 11.0904 26.1984 10.9942 26.1187C10.1411 25.4116 8.87626 25.53 8.16916 26.3831C7.61145 26.1781 6.9916 26.2311 6.47685 26.5279C5.95938 26.8246 5.60146 27.337 5.50096 27.925C5.38043 27.9458 5.26206 27.9777 5.14736 28.0201C4.10612 28.4051 3.57408 29.5613 3.95908 30.6026C3.86177 30.683 3.77227 30.7725 3.69179 30.8699C2.98628 31.723 3.10597 32.9865 3.95908 33.692C3.63754 34.5585 3.9478 35.5326 4.71121 36.0537H1.84369C1.39072 36.0516 1.02405 35.6849 1.02198 35.232V1.81829C1.02405 1.36532 1.39072 0.99865 1.84369 0.996581H23.3548V4.65385C23.3555 5.13531 23.5475 5.59665 23.8888 5.93624C24.2282 6.2763 24.6888 6.46772 25.1693 6.46838H28.821V35.2376Z" fill="#295C7A"/>
</svg>
