<svg width="39" height="48" viewBox="0 0 39 48" fill="none" xmlns="http://www.w3.org/2000/svg">
<path d="M34.5607 46.7131C34.4266 46.7352 34.2888 46.7465 34.1513 46.7465H3.98534C2.61346 46.7465 1.49741 45.6304 1.49741 44.2585V2.92897C1.49741 1.55719 2.61346 0.441048 3.98534 0.441048H27.466C27.563 0.441048 27.6585 0.450751 27.7523 0.466507V5.39902C27.7523 7.56549 29.5148 9.32799 31.6812 9.32799H36.6137C36.6295 9.42185 36.6392 9.51725 36.6392 9.61428V34.7577C36.6392 35.1556 36.9617 35.4782 37.3597 35.4782C37.7577 35.4782 38.0802 35.1556 38.0802 34.7577V9.61428C38.0802 8.77252 37.7525 7.98119 37.1574 7.38603L29.6942 -0.0769607C29.0992 -0.67221 28.3078 -1 27.466 -1H3.98534C1.81896 -1 0.056366 0.762594 0.056366 2.92897V44.2584C0.056366 46.4249 1.81896 48.1875 3.98534 48.1875H34.1513C34.3672 48.1875 34.5841 48.1697 34.7957 48.1347C35.1883 48.0699 35.454 47.699 35.389 47.3063C35.3242 46.9138 34.9531 46.6475 34.5607 46.7131ZM35.6203 7.88694H31.6812C30.3093 7.88694 29.1933 6.7708 29.1933 5.39902V1.46006L35.6203 7.88694Z" fill="#295C7A"/>
</svg>
