<svg width="44" height="48" viewBox="0 0 44 48" fill="none" xmlns="http://www.w3.org/2000/svg">
<path d="M14.1094 3.55273H5.83268C5.43466 3.55273 5.11215 3.87534 5.11215 4.27326C5.11215 4.67118 5.43466 4.99378 5.83268 4.99378H14.1094C14.5074 4.99378 14.8299 4.67118 14.8299 4.27326C14.8299 3.87534 14.5073 3.55273 14.1094 3.55273Z" fill="#295C7A"/>
<path d="M14.1094 6.87793H5.83268C5.43466 6.87793 5.11215 7.20053 5.11215 7.59845C5.11215 7.99638 5.43466 8.31898 5.83268 8.31898H14.1094C14.5074 8.31898 14.8299 7.99638 14.8299 7.59845C14.8299 7.20053 14.5073 6.87793 14.1094 6.87793Z" fill="#295C7A"/>
<path d="M43.1459 42.4708L27.8762 28.3214C28.5726 27.5497 29.2299 26.7702 29.8417 25.9872C31.0221 26.8142 32.6624 26.7052 33.72 25.6549C34.9099 24.4731 34.9166 22.5535 33.7346 21.3634L27.376 14.9611C26.1969 13.7739 24.2717 13.7674 23.0844 14.9464C22.1534 15.8711 21.9488 17.2546 22.4725 18.3812C19.5601 20.6094 16.5903 23.5325 14.253 26.5443C13.1518 26.0209 11.7616 26.1921 10.8131 27.1342C9.6233 28.3159 9.61639 30.2355 10.7985 31.4256L17.1572 37.8279C18.3378 39.0167 20.2585 39.0245 21.4486 37.8425C22.5057 36.7925 22.626 35.1517 21.8075 33.9665C22.5964 33.3586 23.3823 32.7051 24.1606 32.0121L38.205 47.3779C39.1594 48.4219 40.7903 48.4622 41.7947 47.4646L43.208 46.0609C44.2109 45.065 44.1865 43.435 43.1459 42.4708ZM24.1 15.9689C24.7249 15.3483 25.7358 15.3546 26.3536 15.9766L32.7123 22.379C33.3328 23.0038 33.3296 24.0118 32.7046 24.6324C32.0811 25.2517 31.0701 25.2481 30.451 24.6247L24.0923 18.2224C23.4731 17.599 23.4766 16.5881 24.1 15.9689ZM23.3525 19.5224L28.7871 24.9944C26.5692 27.8534 23.7017 30.7028 20.822 32.9053L15.3873 27.4334C17.5484 24.6474 20.404 21.7777 23.3525 19.5224ZM20.4332 36.8202C19.8089 37.4402 18.8004 37.4375 18.1797 36.8125L11.821 30.4102C11.2004 29.7854 11.2037 28.7773 11.8287 28.1567C12.4529 27.5367 13.4615 27.5395 14.0822 28.1644L20.441 34.5667C21.0601 35.19 21.0567 36.2009 20.4332 36.8202ZM42.1925 45.0385L40.7792 46.4422C40.3448 46.8737 39.6599 46.8337 39.2687 46.4057L25.2214 31.0367C25.5042 30.769 25.7862 30.4979 26.066 30.22C26.3476 29.9404 26.6223 29.6585 26.8937 29.3757L42.1664 43.5278C42.6017 43.9312 42.6169 44.6171 42.1925 45.0385Z" fill="#295C7A"/>
<path d="M34.5607 46.7131C34.4266 46.7352 34.2888 46.7465 34.1513 46.7465H3.98534C2.61346 46.7465 1.49741 45.6304 1.49741 44.2585V2.92897C1.49741 1.55719 2.61346 0.441048 3.98534 0.441048H27.466C27.563 0.441048 27.6585 0.450751 27.7523 0.466507V5.39902C27.7523 7.56549 29.5148 9.32799 31.6812 9.32799H36.6137C36.6295 9.42185 36.6392 9.51725 36.6392 9.61428V34.7577C36.6392 35.1556 36.9617 35.4782 37.3597 35.4782C37.7577 35.4782 38.0802 35.1556 38.0802 34.7577V9.61428C38.0802 8.77252 37.7525 7.98119 37.1574 7.38604L29.6942 -0.0769607C29.0992 -0.67221 28.3078 -1 27.466 -1H3.98534C1.81896 -1 0.056366 0.762594 0.056366 2.92897V44.2584C0.056366 46.4249 1.81896 48.1875 3.98534 48.1875H34.1513C34.3672 48.1875 34.5841 48.1697 34.7957 48.1347C35.1883 48.0699 35.454 47.699 35.389 47.3063C35.3242 46.9138 34.9531 46.6475 34.5607 46.7131V46.7131ZM35.6203 7.88694H31.6812C30.3093 7.88694 29.1933 6.7708 29.1933 5.39902V1.46006L35.6203 7.88694Z" fill="#295C7A"/>
</svg>
