<svg width="40" height="44" viewBox="0 0 40 44" fill="none" xmlns="http://www.w3.org/2000/svg">
<path d="M39.0323 33.3548C39.0296 31.2199 38.2262 29.1635 36.7808 27.5922C35.3354 26.0209 33.3531 25.049 31.2258 24.8685V6.3871C31.2258 6.2939 31.2075 6.20161 31.1718 6.11551C31.1361 6.0294 31.0839 5.95117 31.018 5.88527L25.3405 0.207847C25.2746 0.141948 25.1964 0.089675 25.1103 0.0540125C25.0242 0.0183501 24.9319 -3.3954e-06 24.8387 4.71158e-10H0.709677C0.521459 4.71158e-10 0.34095 0.0747693 0.20786 0.20786C0.0747695 0.34095 0 0.521459 0 0.709677V43.2903C0 43.4785 0.0747695 43.659 0.20786 43.7921C0.34095 43.9252 0.521459 44 0.709677 44H30.5161C30.7043 44 30.8849 43.9252 31.0179 43.7921C31.151 43.659 31.2258 43.4785 31.2258 43.2903V41.8412C33.3531 41.6607 35.3354 40.6887 36.7808 39.1174C38.2262 37.5461 39.0296 35.4898 39.0323 33.3548ZM25.5484 2.42293L28.8029 5.67742H25.5484V2.42293ZM1.41935 42.5806V1.41935H24.129V6.3871C24.129 6.57531 24.2038 6.75582 24.3369 6.88891C24.47 7.022 24.6505 7.09677 24.8387 7.09677H29.8065V24.8685C27.6785 25.047 25.6953 26.0184 24.2499 27.5902C22.8044 29.162 22.0022 31.2195 22.0022 33.3548C22.0022 35.4902 22.8044 37.5477 24.2499 39.1195C25.6953 40.6913 27.6785 41.6627 29.8065 41.8412V42.5806H1.41935ZM30.5161 40.4516C29.1125 40.4516 27.7404 40.0354 26.5734 39.2556C25.4063 38.4758 24.4967 37.3674 23.9596 36.0707C23.4224 34.7739 23.2819 33.347 23.5557 31.9703C23.8295 30.5937 24.5055 29.3292 25.498 28.3367C26.4905 27.3442 27.755 26.6683 29.1316 26.3944C30.5083 26.1206 31.9352 26.2611 33.2319 26.7983C34.5287 27.3354 35.6371 28.245 36.4169 29.4121C37.1967 30.5791 37.6129 31.9512 37.6129 33.3548C37.6108 35.2364 36.8624 37.0402 35.5319 38.3707C34.2015 39.7011 32.3977 40.4495 30.5161 40.4516Z" fill="#295C7A"/>
</svg>
