<svg width="44" height="44" viewBox="0 0 44 44" fill="none" xmlns="http://www.w3.org/2000/svg">
<path d="M43.2002 36.1043C42.9083 35.652 42.5601 35.2521 42.1651 34.9155L38.1496 31.4133C38.1183 31.3662 38.0821 31.3216 38.0406 31.28C37.9708 31.2104 37.8917 31.156 37.8077 31.1152L35.3793 28.9973L24.1396 19.1926C24.5997 18.7116 24.853 18.0826 24.853 17.4138C24.853 16.7247 24.5848 16.0772 24.0973 15.5897C23.8847 15.3774 23.643 15.2104 23.3848 15.0881L24.4246 14.0483C24.7153 14.1255 25.0139 14.1651 25.3128 14.1651C26.1929 14.165 27.0731 13.83 27.743 13.16C28.3925 12.5106 28.7502 11.6474 28.7502 10.7293C28.7502 9.81123 28.3925 8.94798 27.7431 8.29855L20.4515 1.0071C19.8021 0.357672 18.9387 0 18.0204 0C17.1025 0 16.2394 0.357672 15.5901 1.0071C14.6926 1.90463 14.3971 3.179 14.7018 4.32558L4.32704 14.7003C4.04035 14.6241 3.74206 14.5839 3.43732 14.5839C2.51882 14.5839 1.65593 14.9413 1.00701 15.5901C-0.33327 16.9304 -0.33327 19.1112 1.00701 20.4516L8.29855 27.7432C8.96878 28.4133 9.84903 28.7484 10.7293 28.7484C11.6096 28.7484 12.4899 28.4133 13.1601 27.7432C14.0577 26.8456 14.3531 25.5713 14.0484 24.4247L15.0861 23.3869C15.2108 23.6473 15.38 23.8876 15.5902 24.0977C16.0771 24.5847 16.7245 24.8529 17.4133 24.8529C18.0815 24.8529 18.7102 24.6 19.1919 24.1404L31.1635 37.895C31.1965 37.9466 31.235 37.9956 31.28 38.0407C31.2954 38.056 31.3118 38.0701 31.328 38.084L34.8953 42.1827C34.984 42.2874 35.0788 42.3903 35.1772 42.4887C36.157 43.4681 37.4511 43.9997 38.8098 43.9997C39.0493 43.9997 39.2911 43.9832 39.5331 43.9496C41.1513 43.7257 42.5497 42.7577 43.3697 41.2935C44.268 39.6888 44.2012 37.6515 43.2002 36.1043ZM16.8055 2.22243C17.1303 1.89767 17.5618 1.71875 18.0205 1.71875C18.4797 1.71875 18.9116 1.89767 19.2362 2.22243L26.5279 9.51397C26.8526 9.83873 27.0315 10.2704 27.0315 10.7294C27.0315 11.1884 26.8526 11.62 26.5278 11.9448C25.8579 12.6149 24.7677 12.6149 24.0978 11.9448L16.8059 4.65291C16.8058 4.65274 16.8057 4.65266 16.8055 4.65248C16.1354 3.98252 16.1354 2.8924 16.8055 2.22243ZM11.9448 26.5279C11.2747 27.198 10.184 27.1981 9.51388 26.5279L2.22234 19.2363C1.55211 18.5661 1.55211 17.4757 2.22234 16.8054C2.5465 16.4812 2.97807 16.3026 3.43732 16.3026C3.89649 16.3026 4.32781 16.4811 4.65188 16.8051L11.9447 24.0979C12.6148 24.7678 12.6148 25.858 11.9448 26.5279ZM15.5629 20.4796L13.16 22.8826L5.86772 15.5903L15.5901 5.86773L22.8823 13.16L20.475 15.5674C20.4672 15.5748 20.4596 15.582 20.4513 15.5902L15.5926 20.449C15.5825 20.4589 15.5728 20.4692 15.5629 20.4796ZM18.6314 22.2723C18.6297 22.2741 18.6281 22.2757 18.6263 22.2774L18.0212 22.8826C17.8588 23.0448 17.6431 23.1342 17.4133 23.1342C17.1835 23.1342 16.9677 23.0448 16.8054 22.8825C16.6429 22.7201 16.5534 22.504 16.5534 22.2741C16.5534 22.0492 16.6393 21.8375 16.7951 21.6778L21.6764 16.7965C22.011 16.4711 22.5519 16.4752 22.8825 16.8054C23.0449 16.9678 23.1344 17.1839 23.1344 17.4138C23.1344 17.6435 23.0452 17.8589 22.8824 18.0213L22.2808 18.6229C22.2766 18.627 22.2725 18.6311 22.2685 18.6352L18.6314 22.2723ZM20.411 22.9233L22.9226 20.4117L33.5567 29.6874L29.6763 33.5679L20.411 22.9233ZM30.8073 34.8674L34.8549 30.8198L36.1531 31.9522L31.9383 36.1671L30.8073 34.8674ZM41.8702 40.4539C41.3156 41.4441 40.3779 42.0977 39.2976 42.2472C38.2198 42.3964 37.1607 42.0414 36.3923 41.2733C36.3262 41.2073 36.263 41.1385 36.204 41.0687C36.2013 41.0654 36.1985 41.0621 36.1957 41.059L33.0693 37.4666L37.4513 33.0845L41.0392 36.2141C41.0419 36.2165 41.0446 36.2188 41.0474 36.2212C41.316 36.4495 41.5543 36.7238 41.7565 37.0371C42.4064 38.0413 42.4519 39.4145 41.8702 40.4539Z" fill="#295C7A"/>
</svg>
